<svg width="46" height="35" viewBox="0 0 46 35" fill="none" xmlns="http://www.w3.org/2000/svg">
<path d="M29.6326 34.9997H0.997832C0.736379 34.9978 0.48595 34.8942 0.299664 34.7107C0.113378 34.5272 0.00589069 34.2784 0 34.017V33.9414C0.00589069 33.68 0.113378 33.4312 0.299664 33.2477C0.48595 33.0643 0.736379 32.9606 0.997832 32.9587C1.12847 32.9469 1.25973 32.9732 1.3758 33.0343H29.6326C29.8814 33.0334 30.1215 33.1263 30.305 33.2944C30.4885 33.4624 30.602 33.6935 30.6229 33.9414C30.6073 34.2057 30.4998 34.4562 30.3189 34.6494C30.138 34.8427 29.8952 34.9667 29.6326 34.9997Z" fill="#416450"/>
<path d="M44.9025 34.9997H29.6327C29.4654 35.0038 29.3 34.9641 29.1528 34.8845C29.0057 34.805 28.8818 34.6883 28.7936 34.5462L19.8963 19.4275L1.61024 34.6973C1.47509 34.8113 1.31111 34.8857 1.13638 34.9123C0.961651 34.939 0.782947 34.9169 0.619964 34.8485C0.461835 34.7738 0.327767 34.6563 0.23292 34.5094C0.138072 34.3624 0.0862296 34.1919 0.083252 34.017V0.982713C0.0891426 0.721319 0.19663 0.472504 0.382916 0.28904C0.569202 0.105577 0.819631 0.0018995 1.08108 0H44.9781C45.2383 0.00384672 45.4868 0.108385 45.6715 0.291644C45.8561 0.474903 45.9626 0.722612 45.9684 0.982713V34.0926C45.8949 34.3292 45.7557 34.5401 45.567 34.7007C45.3783 34.8613 45.1479 34.965 44.9025 34.9997ZM30.1694 33.1099H43.6779L35.2039 19.5787L27.569 28.8011L30.1694 33.1099ZM1.92017 1.88983V31.9004L19.4049 17.2353C19.6314 17.092 19.8929 17.0136 20.1608 17.0085C20.4386 17.0688 20.6839 17.2305 20.8487 17.4621L26.5712 27.0624L34.5841 17.3865C34.6782 17.2759 34.7937 17.1855 34.9235 17.1205C35.0534 17.0556 35.1951 17.0175 35.34 17.0085C35.4958 17.0057 35.6493 17.0467 35.783 17.1269C35.9167 17.2071 36.0251 17.3232 36.0959 17.4621L43.9123 29.8594V1.88983H1.92017Z" fill="#416450"/>
<path d="M28.6422 17.0085C27.5232 16.9981 26.4323 16.6567 25.507 16.0274C24.5816 15.3981 23.8632 14.5091 23.4422 13.4722C23.0212 12.4354 22.9164 11.2971 23.1411 10.2009C23.3658 9.10461 23.9099 8.09936 24.7049 7.31175C25.4998 6.52414 26.5101 5.98941 27.6084 5.7749C28.7067 5.5604 29.8439 5.67572 30.8768 6.10634C31.9097 6.53696 32.792 7.26362 33.4127 8.19479C34.0334 9.12595 34.3646 10.22 34.3646 11.339C34.3448 12.8457 33.7339 14.2842 32.6635 15.3447C31.5931 16.4052 30.149 17.0027 28.6422 17.0085ZM28.6422 7.55936C27.8947 7.55936 27.1639 7.78103 26.5424 8.19635C25.9208 8.61166 25.4363 9.20196 25.1503 9.89261C24.8642 10.5833 24.7893 11.3432 24.9352 12.0764C25.081 12.8096 25.441 13.4831 25.9696 14.0117C26.4982 14.5402 27.1717 14.9002 27.9048 15.0461C28.638 15.1919 29.398 15.1171 30.0886 14.831C30.7793 14.5449 31.3696 14.0605 31.7849 13.4389C32.2002 12.8173 32.4219 12.0866 32.4219 11.339C32.4219 10.3366 32.0237 9.37522 31.3148 8.6664C30.606 7.95757 29.6447 7.55936 28.6422 7.55936Z" fill="#416450"/>
</svg>
