<svg width="26" height="16" viewBox="0 0 26 16" fill="none" xmlns="http://www.w3.org/2000/svg">
<path d="M24 14C16.5 6.5 11 5 1 14" stroke="#3C5F4C" stroke-width="3"/>
<path d="M22 4.65904e-06C22.3956 4.65904e-06 22.7822 0.146627 23.1111 0.42133C23.44 0.696033 23.6964 1.08648 23.8478 1.54329C23.9991 2.00011 24.0387 2.50277 23.9616 2.98773C23.8844 3.47268 23.6939 3.91813 23.4142 4.26777C23.1345 4.6174 22.7781 4.8555 22.3902 4.95196C22.0022 5.04843 21.6001 4.99892 21.2346 4.8097C20.8692 4.62048 20.5568 4.30005 20.3371 3.88893C20.1173 3.4778 20 2.99445 20 2.5C19.9995 2.17152 20.0509 1.84614 20.1512 1.54254C20.2515 1.23894 20.3988 0.963094 20.5847 0.730821C20.7705 0.498549 20.9912 0.314424 21.234 0.189012C21.4769 0.0636002 21.7372 -0.000630091 22 4.65904e-06Z" fill="#3C5F4C"/>
<path d="M2 4.65904e-06C2.39557 4.65904e-06 2.78224 0.146627 3.11114 0.42133C3.44004 0.696033 3.69638 1.08648 3.84776 1.54329C3.99913 2.00011 4.03874 2.50277 3.96157 2.98773C3.8844 3.47268 3.69392 3.91813 3.41421 4.26777C3.13451 4.6174 2.77815 4.8555 2.39018 4.95196C2.00222 5.04842 1.60009 4.99892 1.23464 4.8097C0.869184 4.62048 0.556826 4.30005 0.337064 3.88893C0.117301 3.4778 3.72724e-06 2.99445 3.72724e-06 2.5C-0.000504073 2.17152 0.0508802 1.84614 0.15121 1.54254C0.251539 1.23894 0.398841 0.963094 0.584659 0.730821C0.770477 0.498549 0.991156 0.314424 1.23404 0.189012C1.47692 0.0636002 1.73722 -0.000630091 2 4.65904e-06Z" fill="#3C5F4C"/>
</svg>
