<svg width="46" height="35" viewBox="0 0 46 35" fill="none" xmlns="http://www.w3.org/2000/svg">
<g clip-path="url(#clip0_43_928)">
<path d="M7.20706e-06 0V34.0476C-0.00055334 34.1727 0.0315899 34.2967 0.0945872 34.4124C0.157585 34.5281 0.250192 34.6333 0.367082 34.7218C0.483971 34.8103 0.622834 34.8805 0.775681 34.9282C0.928528 34.976 1.09234 35.0004 1.25769 35H45.2703V33.0952H2.51538V0H7.20706e-06Z" fill="#426450"/>
<path d="M44.1061 12.0448C44.6083 12.0448 45.0899 11.8939 45.4451 11.6252C45.8003 11.3565 45.9999 10.992 46.0001 10.6119V4.70576C46.0002 4.51755 45.9512 4.33118 45.8561 4.15729C45.7609 3.98341 45.6214 3.82543 45.4455 3.6924C45.2696 3.55936 45.0607 3.45388 44.8309 3.38199C44.6011 3.31009 44.3548 3.2732 44.1061 3.27341H36.8743C36.6256 3.27341 36.3794 3.31047 36.1497 3.38248C35.92 3.45449 35.7113 3.56004 35.5355 3.69309C35.3597 3.82615 35.2203 3.98411 35.1251 4.15795C35.03 4.3318 34.981 4.51813 34.981 4.7063C34.981 4.89447 35.03 5.08079 35.1251 5.25464C35.2203 5.42849 35.3597 5.58645 35.5355 5.7195C35.7113 5.85256 35.92 5.9581 36.1497 6.03011C36.3794 6.10212 36.6256 6.13919 36.8743 6.13919H39.3741L26.0123 18.0769L25.9415 14.488C25.9359 14.1963 25.8127 13.9128 25.5885 13.6754C25.3643 13.4381 25.0498 13.2582 24.6869 13.1597C24.324 13.0613 23.9301 13.049 23.5577 13.1244C23.1854 13.1999 22.8523 13.3596 22.603 13.5822L5.10869 29.2175C4.93978 29.3602 4.81039 29.5271 4.72816 29.7083C4.64594 29.8894 4.61255 30.0813 4.62998 30.2724C4.64741 30.4635 4.71529 30.65 4.82962 30.8209C4.94395 30.9919 5.1024 31.1437 5.2956 31.2674C5.48881 31.3912 5.71284 31.4844 5.95445 31.5415C6.19607 31.5986 6.45035 31.6184 6.70228 31.5999C6.95421 31.5813 7.19865 31.5247 7.42117 31.4334C7.64368 31.3421 7.83974 31.2179 7.99776 31.0682L22.2286 18.3528L22.2994 21.9417C22.3046 22.2334 22.4275 22.517 22.6515 22.7545C22.8755 22.992 23.19 23.172 23.5529 23.2705C23.9158 23.369 24.3098 23.3813 24.6821 23.3057C25.0545 23.2301 25.3875 23.0702 25.6365 22.8475L42.2136 8.03489V10.6136C42.2143 10.9932 42.414 11.357 42.7688 11.6254C43.1236 11.8937 43.6046 12.0445 44.1061 12.0448Z" fill="#426450"/>
</g>
<defs>
<clipPath id="clip0_43_928">
<rect width="46" height="35" fill="white"/>
</clipPath>
</defs>
</svg>
