<svg width="46" height="40" viewBox="0 0 46 40" fill="none" xmlns="http://www.w3.org/2000/svg">
<g clip-path="url(#clip0_43_931)">
<path d="M40.9355 6.18194H39.4742C39.3511 6.18093 39.2292 6.20152 39.1172 6.24225V2.34545C39.1172 1.7234 38.8075 1.12682 38.2562 0.686967C37.705 0.247109 36.9573 0 36.1777 0C35.398 0 34.6503 0.247109 34.0991 0.686967C33.5478 1.12682 33.2381 1.7234 33.2381 2.34545V6.19534C33.1837 6.19005 33.1287 6.19005 33.0743 6.19534H12.9173C12.8436 6.19634 12.7703 6.20421 12.6989 6.2188V2.34545C12.6989 1.7234 12.3892 1.12682 11.8379 0.686967C11.2867 0.247109 10.539 4.94267e-08 9.75936 4.94267e-08C8.97974 4.94267e-08 8.23205 0.247109 7.68077 0.686967C7.1295 1.12682 6.81979 1.7234 6.81979 2.34545V6.2255C6.72586 6.19707 6.6263 6.18232 6.52584 6.18194H5.06445C3.72162 6.18283 2.4341 6.60885 1.48457 7.36647C0.535044 8.12408 0.00111208 9.15138 0 10.2228L0 35.9591C0.00111208 37.0306 0.535044 38.0579 1.48457 38.8155C2.4341 39.5731 3.72162 39.9991 5.06445 40H40.9355C42.2784 39.9991 43.5659 39.5731 44.5154 38.8155C45.465 38.0579 45.9989 37.0306 46 35.9591V10.2228C45.9989 9.15138 45.465 8.12408 44.5154 7.36647C43.5659 6.60885 42.2784 6.18283 40.9355 6.18194ZM34.8884 2.34545C34.8784 2.20521 34.9044 2.0648 34.9647 1.93284C35.0251 1.80088 35.1186 1.68014 35.2395 1.57802C35.3604 1.47591 35.5061 1.39455 35.6678 1.33895C35.8295 1.28335 36.0037 1.25467 36.1797 1.25467C36.3558 1.25467 36.53 1.28335 36.6917 1.33895C36.8534 1.39455 36.9991 1.47591 37.12 1.57802C37.2409 1.68014 37.3344 1.80088 37.3948 1.93284C37.4551 2.0648 37.4811 2.20521 37.4711 2.34545V9.40191C37.4522 9.66501 37.308 9.9124 37.0679 10.0934C36.8278 10.2743 36.51 10.3751 36.1797 10.3751C35.8495 10.3751 35.5317 10.2743 35.2916 10.0934C35.0515 9.9124 34.9073 9.66501 34.8884 9.40191V2.34545ZM8.46595 2.34545C8.46595 2.07175 8.60222 1.80926 8.84478 1.61572C9.08734 1.42218 9.41632 1.31345 9.75936 1.31345C10.1024 1.31345 10.4314 1.42218 10.6739 1.61572C10.9165 1.80926 11.0528 2.07175 11.0528 2.34545V9.40191C11.0528 9.67561 10.9165 9.93811 10.6739 10.1316C10.4314 10.3252 10.1024 10.4339 9.75936 10.4339C9.41632 10.4339 9.08734 10.3252 8.84478 10.1316C8.60222 9.93811 8.46595 9.67561 8.46595 9.40191V2.34545ZM44.2153 35.9591C44.2153 36.6532 43.8697 37.3188 43.2547 37.8095C42.6396 38.3003 41.8054 38.576 40.9355 38.576H5.06445C4.19462 38.576 3.36041 38.3003 2.74534 37.8095C2.13028 37.3188 1.78474 36.6532 1.78474 35.9591V10.2228C1.78474 9.52878 2.13028 8.86318 2.74534 8.37242C3.36041 7.88167 4.19462 7.60596 5.06445 7.60596H5.63137V8.99983C5.63137 9.42841 5.73716 9.85278 5.94271 10.2487C6.14827 10.6447 6.44955 11.0044 6.82936 11.3075C7.20917 11.6105 7.66007 11.8509 8.15631 12.0149C8.65256 12.1789 9.18443 12.2634 9.72156 12.2634C10.2587 12.2634 10.7906 12.1789 11.2868 12.0149C11.7831 11.8509 12.234 11.6105 12.6138 11.3075C12.9936 11.0044 13.2949 10.6447 13.5004 10.2487C13.706 9.85278 13.8118 9.42841 13.8118 8.99983V7.60596H32.1882V8.99983C32.1882 9.86537 32.6192 10.6955 33.3862 11.3075C34.1533 11.9195 35.1936 12.2634 36.2784 12.2634C37.3632 12.2634 38.4036 11.9195 39.1706 11.3075C39.9377 10.6955 40.3686 9.86537 40.3686 8.99983V7.60596H40.9355C41.8054 7.60596 42.6396 7.88167 43.2547 8.37242C43.8697 8.86318 44.2153 9.52878 44.2153 10.2228V35.9591Z" fill="#3B5E4B"/>
<path d="M41.6159 16.4416H4.53534C4.29884 16.4416 4.07196 16.5164 3.90433 16.6495C3.73671 16.7826 3.64198 16.9633 3.64087 17.152V34.639C3.64309 35.2892 3.96838 35.9122 4.5454 36.3713C5.12242 36.8305 5.90409 37.0883 6.71901 37.0883H39.4364C40.2509 37.0883 41.0321 36.8304 41.6085 36.3711C42.1849 35.9119 42.5092 35.2889 42.5103 34.639V17.152C42.5103 17.0584 42.4872 16.9658 42.4422 16.8794C42.3972 16.793 42.3312 16.7145 42.2481 16.6485C42.165 16.5825 42.0663 16.5302 41.9578 16.4947C41.8493 16.4592 41.7331 16.4412 41.6159 16.4416ZM40.734 34.639C40.7329 34.9106 40.5971 35.1709 40.3564 35.363C40.1156 35.5551 39.7894 35.6634 39.449 35.6643H6.71901C6.37855 35.6634 6.05234 35.5551 5.8116 35.363C5.57085 35.1709 5.43511 34.9106 5.434 34.639V17.8657H40.734V34.639Z" fill="#3B5E4B"/>
<path d="M21.2461 32H19.4355V27.043L19.4531 26.2344L19.4824 25.3379C19.1816 25.6387 18.9727 25.8359 18.8555 25.9297L17.8711 26.7207L16.998 25.6309L19.7578 23.4336H21.2461V32ZM27.1582 26.4336C27.9238 26.4336 28.5215 26.6738 28.9512 27.1543C29.3887 27.6309 29.6074 28.3125 29.6074 29.1992C29.6074 30.082 29.3477 30.7891 28.8281 31.3203C28.3203 31.8516 27.6074 32.1172 26.6895 32.1172C26.6777 32.1172 26.666 32.1172 26.6543 32.1172C25.7129 32.1172 24.9609 31.7871 24.3984 31.127C23.8398 30.4668 23.5605 29.5605 23.5605 28.4082C23.5605 28.3926 23.5605 28.377 23.5605 28.3613C23.5605 26.6699 23.918 25.4102 24.6328 24.582C25.3477 23.75 26.4219 23.334 27.8555 23.334C28.3477 23.334 28.7305 23.3633 29.0039 23.4219V24.8691C28.6484 24.791 28.3047 24.752 27.9727 24.752C26.7578 24.752 25.957 25.123 25.5703 25.8652C25.375 26.2441 25.2598 26.7656 25.2246 27.4297H25.3008C25.6875 26.7656 26.3066 26.4336 27.1582 26.4336ZM27.8555 29.2109C27.8555 28.7578 27.7559 28.4141 27.5566 28.1797C27.3613 27.9414 27.0762 27.8223 26.7012 27.8223C26.3262 27.8223 26.0078 27.9414 25.7461 28.1797C25.4883 28.4219 25.3594 28.6992 25.3594 29.0117C25.3594 29.4727 25.4805 29.8652 25.7227 30.1895C25.9688 30.5098 26.2812 30.6699 26.6602 30.6699C27.043 30.6699 27.3379 30.541 27.5449 30.2832C27.752 30.0215 27.8555 29.6641 27.8555 29.2109Z" fill="#3B5E4B"/>
</g>
<defs>
<clipPath id="clip0_43_931">
<rect width="46" height="40" fill="white"/>
</clipPath>
</defs>
</svg>
