<svg width="26" height="16" viewBox="0 0 26 16" fill="none" xmlns="http://www.w3.org/2000/svg">
<path d="M1 9C5.83333 13.1667 15.5 17 24 9" stroke="#3C5F4C" stroke-width="3"/>
<path d="M3 4.65904e-06C3.39557 4.65904e-06 3.78224 0.146627 4.11114 0.42133C4.44004 0.696033 4.69638 1.08648 4.84776 1.54329C4.99913 2.00011 5.03874 2.50277 4.96157 2.98773C4.8844 3.47268 4.69392 3.91813 4.41421 4.26777C4.13451 4.6174 3.77815 4.8555 3.39018 4.95196C3.00222 5.04843 2.60009 4.99892 2.23464 4.8097C1.86918 4.62048 1.55683 4.30005 1.33706 3.88893C1.1173 3.4778 1 2.99445 1 2.5C0.999496 2.17152 1.05088 1.84614 1.15121 1.54254C1.25154 1.23894 1.39884 0.963094 1.58466 0.730821C1.77048 0.498549 1.99116 0.314424 2.23404 0.189012C2.47692 0.0636002 2.73722 -0.000630091 3 4.65904e-06Z" fill="#3C5F4C"/>
<path d="M23 4.65904e-06C23.3956 4.65904e-06 23.7822 0.146627 24.1111 0.42133C24.44 0.696033 24.6964 1.08648 24.8478 1.54329C24.9991 2.00011 25.0387 2.50277 24.9616 2.98773C24.8844 3.47268 24.6939 3.91813 24.4142 4.26777C24.1345 4.6174 23.7781 4.8555 23.3902 4.95196C23.0022 5.04843 22.6001 4.99892 22.2346 4.8097C21.8692 4.62048 21.5568 4.30005 21.3371 3.88893C21.1173 3.4778 21 2.99445 21 2.5C20.9995 2.17152 21.0509 1.84614 21.1512 1.54254C21.2515 1.23894 21.3988 0.963094 21.5847 0.730821C21.7705 0.498549 21.9912 0.314424 22.234 0.189012C22.4769 0.0636002 22.7372 -0.000630091 23 4.65904e-06Z" fill="#3C5F4C"/>
</svg>
